<?xml version="1.0" encoding="utf-8"?>
<!-- Generator: Adobe Illustrator 27.9.2, SVG Export Plug-In . SVG Version: 6.00 Build 0)  -->
<svg version="1.1" id="katman_1" xmlns="http://www.w3.org/2000/svg" xmlns:xlink="http://www.w3.org/1999/xlink" x="0px" y="0px"
	 viewBox="0 0 61.3 61.4" style="enable-background:new 0 0 61.3 61.4;" xml:space="preserve">
<style type="text/css">
	.st0{fill:#FEBE69;}
	.st1{fill:#211715;}
</style>
<path class="st0" d="M50.9,29.3C50,26.5,48.4,24,46.3,22c-3.3-2.9-7.6-4.6-12.3-5.2c-1.1-0.1-2.2-0.2-3.3-0.2
	c-1.1,0-2.2,0.1-3.3,0.2c-4.7,0.6-9,2.2-12.3,5.2c-2.3,2.1-4.3,6.2-5,9.3c-0.9,4.1-1.2,5.5-1.4,12.4h44c-0.1-6.1-0.4-8.7-1.3-12.9
	C51.2,30.3,51,29.8,50.9,29.3z"/>
<path class="st1" d="M27.1,12.7h7.1c0.6,0,1.1-0.5,1.1-1.1c0-0.6-0.5-1.1-1.1-1.1h-7.1c-0.6,0-1.1,0.5-1.1,1.1
	C26,12.2,26.5,12.7,27.1,12.7z"/>
<path class="st1" d="M29.5,12v3.3c0,0.6,0.5,1.1,1.1,1.1c0.6,0,1.1-0.5,1.1-1.1l0,0V12c0-0.6-0.5-1.1-1.1-1.1
	C30,10.9,29.5,11.4,29.5,12z"/>
<path class="st1" d="M10,39.4c0.1-2.1,0.4-4.1,0.8-6.2c0.4-2.1,1-4.1,1.9-6c0.9-1.9,2.2-3.6,3.7-4.9c1.8-1.4,3.8-2.5,5.9-3.2
	c4.3-1.5,8.9-1.8,13.3-0.9c4.3,0.9,8.8,2.8,11.5,6.4c3.2,4.2,3.9,9.6,4.2,14.8c0.1,1.4,2.3,1.4,2.2,0c-0.3-5-0.9-10.3-3.7-14.7
	c-2.7-4.2-7-6.9-11.8-8.2c-4.8-1.3-10-1.4-14.8,0c-2.4,0.6-4.7,1.6-6.7,3c-2,1.3-3.7,3-4.9,5c-2.7,4.4-3.6,9.8-4,14.9
	c0,0.6,0.5,1.1,1.1,1.1C9.5,40.5,10,40,10,39.4L10,39.4z"/>
<path class="st1" d="M20.1,38.7h21c1.4,0,1.4-2.2,0-2.2h-21C18.7,36.4,18.7,38.7,20.1,38.7z"/>
<path class="st0" d="M5.2,49.8c-1,0-1.8,0-2.2,0c-0.2,0-0.3-0.1-0.3-0.3c0,0,0,0,0,0c0.1-1.6,0.4-3.2,0.9-4.8
	c0.3-0.9,1.1-1.5,2.1-1.5h49.8c1,0,1.9,0.7,2.1,1.7l0.9,4.3c0.1,0.2,0,0.3-0.1,0.5c-0.1,0.1-0.1,0.1-0.2,0.1
	C52.7,49.8,15.4,49.8,5.2,49.8z"/>
<path class="st1" d="M5.2,48.7c-0.4,0-0.9,0-1.3,0H3.4H3.2c-0.2,0-0.1,0,0.2,0.1l0.4,0.4c0.2,0.3,0.1,0.2,0.1,0c0-0.1,0-0.2,0-0.3
	c0-0.2,0-0.5,0.1-0.7c0.1-0.6,0.2-1.3,0.4-1.9c0.2-0.8,0.3-1.8,1.3-1.9c0.2,0,0.3,0,0.5,0h46.5c0.9,0,1.8,0,2.7,0
	c0.6,0,1.1,0.4,1.2,0.9c0.3,1.1,0.5,2.2,0.7,3.4c0.1,0.3,0.2,0.6,0.2,0.9l0.2-0.6l-0.1,0.1l0.4-0.4c0.2-0.2,0.4,0,0.1,0
	c-0.1,0-0.2,0-0.3,0h-2h-4l-11.1,0c-8.5,0-17,0-25.5,0C11.8,48.7,8.5,48.7,5.2,48.7c-1.4,0-1.4,2.2,0,2.2c4.2,0,8.3,0,12.5,0
	c5.8,0,11.6,0,17.3,0c5.3,0,10.6,0,15.8,0c1.8,0,3.6,0,5.4,0h1.7c0.6,0,1.2-0.1,1.6-0.7c0.3-0.5,0.3-1.1,0.1-1.7l-0.7-3.1
	c-0.3-1.2-0.7-2.4-1.9-3c-0.8-0.4-1.7-0.4-2.6-0.4H8c-0.7,0-1.5,0-2.2,0c-0.7,0-1.4,0.2-2,0.5c-1,0.6-1.3,1.6-1.6,2.7
	c-0.3,1-0.5,2.1-0.6,3.2c-0.1,0.9-0.2,2.1,1,2.4c0.8,0.2,1.8,0.1,2.6,0.1C6.6,50.9,6.6,48.7,5.2,48.7z"/>
</svg>
